<?xml version="1.0" encoding="UTF-8" standalone="no"?>
<svg
   width="1280"
   height="1280"
   viewBox="0 0 1280 1280"
   fill="none"
   stroke="currentColor"
   stroke-width="2"
   stroke-linecap="round"
   stroke-linejoin="round"
   class="lucide lucide-sun w-5 h-5 text-white"
   aria-hidden="true"
   version="1.1"
   id="svg8"
   sodipodi:docname="colang-logo.svg"
   inkscape:version="1.4.2 (f4327f4, 2025-05-13)"
   inkscape:export-filename="colang-logo.png"
   inkscape:export-xdpi="96"
   inkscape:export-ydpi="96"
   xmlns:inkscape="http://www.inkscape.org/namespaces/inkscape"
   xmlns:sodipodi="http://sodipodi.sourceforge.net/DTD/sodipodi-0.dtd"
   xmlns="http://www.w3.org/2000/svg"
   xmlns:svg="http://www.w3.org/2000/svg">
  <defs
     id="defs8" />
  <sodipodi:namedview
     id="namedview8"
     pagecolor="#ffffff"
     bordercolor="#000000"
     borderopacity="0.25"
     inkscape:showpageshadow="2"
     inkscape:pageopacity="0.0"
     inkscape:pagecheckerboard="0"
     inkscape:deskcolor="#d1d1d1"
     inkscape:zoom="0.18945313"
     inkscape:cx="-4932.6184"
     inkscape:cy="248.08247"
     inkscape:window-width="3440"
     inkscape:window-height="1369"
     inkscape:window-x="2552"
     inkscape:window-y="-8"
     inkscape:window-maximized="1"
     inkscape:current-layer="SvgjsG5287"
     inkscape:export-bgcolor="#ffffffff" />
  <g
     id="SvgjsG1889"
     featurekey="symbolFeature-0"
     transform="matrix(14.389867,0,0,14.834779,-81.222441,-78.214627)"
     fill="#f97316"
     style="stroke:none">
    <path
       d="M 6.8382347,50.894547 C 8.1525144,73.451999 28.651655,90.672172 52.625548,89.357893 76.599446,88.043612 94.967824,68.692673 93.653542,46.135228 92.339314,23.578744 71.840115,6.3576036 47.866228,7.6718825 23.89233,8.9861565 5.5240138,28.338065 6.8382347,50.894547 Z M 81.552344,46.798626 c 0.423421,7.267353 -2.009708,14.065616 -6.372063,19.439442 l 2.137965,9.863604 -9.883375,-3.0782 C 63.011478,75.754121 57.797825,77.469097 52.144015,77.779046 34.959215,78.721133 20.265326,66.377626 19.323288,50.209132 18.381262,34.040633 31.547756,20.16881 48.73254,19.226718 65.917334,18.284629 80.610307,30.630135 81.552344,46.798626 Z"
       id="path3-8"
       style="stroke:none" />
  </g>
  <g
     id="SvgjsG5287"
     featurekey="symbolFeature-0"
     transform="matrix(9.8828259,0,0,10.188387,143.97494,135.09672)"
     fill="#f97316"
     style="stroke:none">
    <path
       d="M 75.227983,48.196082 C 73.386983,46.999082 70.712,47.937 70.088,50.008 c -0.25617,3.078714 -0.577189,5.129423 -1.052416,6.462255 -0.715641,1.616811 -1.481453,2.254682 -2.883584,3.965745 -2.394,1.975 -4.722,4.085 -7.339,5.72 -5.123,3.201 -10.76,4.648 -16.823,3.6 -5.458,-0.943 -10.460661,-3.839294 -14.023322,-8.226375 -1.466,-2.233 -1.119809,-2.219826 -2.268508,-4.712035 -1.08053,-2.60317 -0.741246,-3.860587 -1.307471,-5.449672 -1.019032,0.252499 -1.204454,0.478523 -1.255094,1.04899 -0.275274,3.101002 -0.03121,5.199338 1.241357,7.607092 2.811,5.324 7.021038,9.21 12.512038,12.084 7.603,3.976 14.833,3.491 22.363,0.421 4.063,-1.658 7.337,-4.33 10.651,-7.158 3.812,-3.25 5.751,-7.094 6.378,-11.934 0.287,-2.228 0.674983,-4.118918 -1.053017,-5.240918 z"
       id="path2-5"
       style="stroke:none"
       sodipodi:nodetypes="cccccccccscccccc" />
    <path
       d="m 60.739,28.279 c -1.232,1.126 -2.353,2.449 -3.228,3.868 -0.799,1.294 -0.257,2.654 0.708,3.77 0.917,1.062 2.096,1.213 3.24,0.559 2.707,-1.549 5.218,-0.978 7.791,0.348 0.362,0.187 1.225,-0.267 1.639,-0.656 0.2,-0.188 0.072,-1.137 -0.209,-1.354 -1.607,-1.257 -3.312,-2.387 -4.965,-3.587 -0.403,-0.292 -0.736,-0.68 -1.1,-1.021 0.458,-1.149 0.887,-2.225 1.658,-4.157 -2.011,-1.299 -4.267,1.072 -5.534,2.23 z"
       id="path3-1"
       style="stroke:none" />
    <path
       d="m 34.095,38.799 c 0.249,-0.092 0.808,-0.153 1.164,-0.456 1.906,-1.623 3.018,-3.689 2.999,-6.227 -0.007,-0.623 -0.317,-1.34 -0.702,-1.851 C 35.445,27.463 31.911,27.827 30,31 c -0.975,1.617 -0.947,3.365 -0.056,4.881 0.839,1.427 1.918,2.87 4.151,2.918 z"
       id="path4-7"
       style="stroke:none" />
  </g>
</svg>
