<svg xmlns="http://www.w3.org/2000/svg" width="100" height="100" viewBox="0 0 100 100">
    <defs></defs>
    <g transform="matrix(1.3066258186598114,0,0,1.3066258186598114,-14.99483767562719,-23.715255618046413)"
        fill="#64ee85">
        <path
            d="M88.009,83.206l-20.387-6.892c-4.33,2.308-9.268,3.628-14.518,3.628c-4.417,0-8.608-0.941-12.41-2.611  c7.771-3.172,13.253-10.794,13.253-19.704c0-11.753-9.528-21.284-21.283-21.284c-2.991,0-5.834,0.622-8.416,1.736  c4.428-11.641,15.66-19.929,28.856-19.929C70.167,18.15,84,31.982,84,49.046c0,4.732-1.095,9.198-2.997,13.207L88.009,83.206z   M49.225,58.155c0,9.917-8.039,17.955-17.955,17.955c-3.051,0-5.922-0.767-8.436-2.106L11.476,76.11l3.58-10.278  c-1.105-2.329-1.741-4.926-1.741-7.677c0-9.916,8.037-17.954,17.955-17.954C41.186,40.201,49.225,48.239,49.225,58.155z   M23.333,57.988c0-1.438-1.165-2.604-2.604-2.604c-1.438,0-2.604,1.165-2.604,2.604c0,1.439,1.166,2.604,2.604,2.604  C22.169,60.593,23.333,59.428,23.333,57.988z M32.997,57.988c0-1.438-1.164-2.604-2.604-2.604c-1.438,0-2.604,1.165-2.604,2.604  c0,1.439,1.166,2.604,2.604,2.604C31.833,60.593,32.997,59.428,32.997,57.988z M42.662,57.988c0-1.438-1.166-2.604-2.604-2.604  c-1.44,0-2.605,1.165-2.605,2.604c0,1.439,1.165,2.604,2.605,2.604C41.496,60.593,42.662,59.428,42.662,57.988z">
        </path>
    </g>
</svg>